:SAMPLES-PER-SECOND 30
:FULLY-SPECIFIED
:DEGREES
134
root  34.75362222 36.58218384 -13.98864356 10.51904202 -4.955004692 4.046517849
lowerback  -7.83468008 0.1183299795 -1.089840293
upperback  -3.923710108 0.7968099713 -4.637940407
thorax  0.3882179856 0.5912280083 -4.116280079
lowerneck  -7.270339966 -14.34729958 -9.486840248
upperneck  14.56659985 -20.10889816 12.94880009
head  7.995208263 -8.974481583 3.582907915
lclavicle  0 -4.497500157e-015 -2.743230041e-014
lhumerus  -47.63740158 30.72669983 61.55360031
lradius  0.001172923949 -6.507048965e-006 29.17900085
lwrist  3.192251654e-007 -3.790274832e-007 -29.76530075
lhand  -0 -36.78480148 -10.59710026
lfingers  90 7.125020027 -90
lthumb  94.74572055 -25.43851919 100.9387824
rclavicle  0 -4.497500157e-015 -2.743230041e-014
rhumerus  16.01759911 -32.54729843 -39.29759979
rradius  -5.16745672e-007 2.214343908e-008 49.44630051
rwrist  0.0003490542294 -0.002273720223 -162.1609955
rhand  -1.770447676e-031 4.257309914 -5.060579777
rfingers  -90 -7.125020027 -90
rthumb  -83.84604502 -10.66047534 -59.76399057
rfemur  -11.511096 14.37918091 11.88702965
rtibia  -0.1785330027 -1.990869284 17.79501343
rfoot  1.88263309 -22.69627762 -33.78990173
rtoes  4.015721144 19.60889492 -101.8151324
lfemur  -2.227664232 -16.52840805 -23.89174461
ltibia  8.533811569 -1.007200241 3.887609482
lfoot  0.2691546381 -18.75200844 36.57825851
ltoes  -8.611367557 -18.12006978 -115.9626821
135
root  34.75611529 36.58319608 -13.9928232 10.51227951 -4.940209389 4.045548916
lowerback  -7.843929291 0.115716964 -1.099490285
upperback  -3.927020073 0.7949730158 -4.632460117
thorax  0.389692992 0.5907469988 -4.11026001
lowerneck  -7.269869804 -14.36499977 -9.499190331
upperneck  14.5763998 -20.13310051 12.94499969
head  7.995792866 -8.985321045 3.585321426
lclavicle  0 -4.497500157e-015 -2.743230041e-014
lhumerus  -47.64680099 30.71940041 61.53760147
lradius  0.001172923949 -6.507048965e-006 29.17064095
lwrist  3.192251654e-007 -3.790274832e-007 -29.80420113
lhand  -4.406287275e-031 -36.73759842 -10.57499981
lfingers  90 7.125020027 -90
lthumb  94.71903742 -25.41831517 100.8863553
rclavicle  0 -4.497500157e-015 -2.743230041e-014
rhumerus  16.59269905 -32.73199844 -39.35699844
rradius  -5.16745672e-007 2.214343908e-008 48.33140182
rwrist  0.0003490542294 -0.002273720223 -161.7429962
rhand  -1.770298135e-031 4.191790104 -5.394219875
rfingers  -90 -7.125020027 -90
rthumb  -84.03392151 -10.36903666 -59.85938344
rfemur  -11.48638821 14.37972069 11.88616276
rtibia  -0.1838970184 -2.013964176 17.74665833
rfoot  1.894063354 -22.70723534 -33.82194138
rtoes  4.033239797 19.6054349 -101.8673381
lfemur  -2.226459265 -16.53732872 -23.89220238
ltibia  8.53416729 -0.9977121353 3.876882792
lfoot  0.2726747692 -18.78090286 36.57232666
ltoes  -8.59651324 -18.12693663 -115.9149292
136
root  34.75923914 36.58384188 -13.99828543 10.50378323 -4.94557333 4.065727711
lowerback  -7.853080273 0.1298239529 -1.096869826
upperback  -3.925062656 0.8143879771 -4.635099888
thorax  0.3931989968 0.6006339788 -4.11288023
lowerneck  -7.255139828 -14.38599968 -9.5291996
upperneck  14.56729984 -20.16690063 12.99880028
head  8.005949974 -8.998729706 3.600199938
lclavicle  0 -4.497500157e-015 -2.743230041e-014
lhumerus  -47.62340164 30.70560074 61.52170181
lradius  0.001172923949 -6.507048965e-006 29.16270256
lwrist  3.192251654e-007 -3.790274832e-007 -29.82489967
lhand  -4.422448222e-031 -37.01720047 -10.8270998
lfingers  90 7.125020027 -90
lthumb  94.90375899 -25.65577775 101.2085638
rclavicle  0 -4.497500157e-015 -2.743230041e-014
rhumerus  17.04520035 -32.854599 -39.30310059
rradius  -5.16745672e-007 2.214343908e-008 47.21849823
rwrist  0.0003490542294 -0.002273720223 -161.6049957
rhand  -1.771150261e-031 4.552420139 -5.219560146
rfingers  -90 -7.125020027 -90
rthumb  -83.8494512 -10.53667546 -59.48931738
rfemur  -11.5165453 14.41846848 11.87430096
rtibia  -0.2136803865 -2.006494045 17.794981
rfoot  1.878886938 -22.66750336 -33.8482399
rtoes  4.027376826 19.60659462 -101.8498654
lfemur  -2.224374533 -16.5613575 -23.91566467
ltibia  8.534480095 -1.009167433 3.87586236
lfoot  0.2788752317 -18.76159477 36.59298706
ltoes  -8.584923341 -18.13228411 -115.8776827
137
root  34.75991497 36.58400708 -14.00348783 10.49700928 -4.930729389 4.099746704
lowerback  -7.863929749 0.1422000825 -1.055009842
upperback  -3.921074152 0.8288999796 -4.647469997
thorax  0.4043579996 0.6074299812 -4.148280144
lowerneck  -7.233809948 -14.42510033 -9.532779694
upperneck  14.5461998 -20.22830009 13.05529976
head  8.009550095 -9.023509979 3.610990047
lclavicle  0 -4.497500157e-015 -2.743230041e-014
lhumerus  -47.6053009 30.70849991 61.46110153
lradius  0.001172923949 -6.507048965e-006 29.16448021
lwrist  3.192251654e-007 -3.790274832e-007 -29.88579941
lhand  -4.434992872e-031 -37.23160172 -10.94869995
lfingers  90 7.125020027 -90
lthumb  95.0316507 -25.76711055 101.4495838
rclavicle  0 -4.497500157e-015 -2.743230041e-014
rhumerus  17.64310265 -33.23550034 -39.51520157
rradius  -5.16745672e-007 2.214343908e-008 46.16220093
rwrist  0.0003490542294 -0.002273720223 -160.5930023
rhand  -1.771105726e-031 4.534289837 -5.235429764
rfingers  -90 -7.125020027 -90
rthumb  -83.86245778 -10.52215557 -59.50860672
rfemur  -11.57617188 14.45813179 11.86116791
rtibia  -0.2574363947 -1.98325491 17.90556908
rfoot  1.836722255 -22.6126461 -33.88975525
rtoes  4.018244371 19.60839754 -101.8226511
lfemur  -2.232073545 -16.54982567 -23.94608688
ltibia  8.534751892 -1.001465678 3.876250267
lfoot  0.2824009955 -18.78427696 36.59519196
ltoes  -8.566979469 -18.1405455 -115.8200374
